name Walk4.mot
datacolumns 19
datarows 12
range 3.57000000 3.62500000
endheader

                time	   L_ground_force_vx	   L_ground_force_vy	   L_ground_force_vz	   L_ground_force_px	   L_ground_force_py	   L_ground_force_pz	   R_ground_force_vx	   R_ground_force_vy	   R_ground_force_vz	   R_ground_force_px	   R_ground_force_py	   R_ground_force_pz	   L_ground_torque_x	   L_ground_torque_y	   L_ground_torque_z	   R_ground_torque_x	   R_ground_torque_y	   R_ground_torque_z	
          3.57000000	          0.09875143	          0.24096303	          0.00203232	         -0.00015501	          0.00000000	         -0.00003704	        -16.67742718	        782.62597194	        -60.30959892	          0.20867983	          0.00000000	          0.12079365	          0.00000000	          0.00040853	          0.00000000	          0.00000000	         12.19128765	          0.00000000	
          3.57500000	          0.07706719	          0.19982072	          0.00073295	         -0.00028885	          0.00000000	         -0.00009420	        -15.22076134	        774.07246002	        -59.58254413	          0.21053481	          0.00000000	          0.12126417	          0.00000000	          0.00046140	          0.00000000	          0.00000000	         11.80039952	          0.00000000	
          3.58000000	          0.05706642	          0.15763356	         -0.00015829	         -0.00035183	          0.00000000	         -0.00012341	        -13.82460564	        765.56017563	        -58.95615419	          0.21239081	          0.00000000	          0.12174144	          0.00000000	          0.00045880	          0.00000000	          0.00000000	         11.42396432	          0.00000000	
          3.58500000	          0.03972706	          0.11811284	         -0.00071730	         -0.00036439	          0.00000000	         -0.00013238	        -12.49164783	        757.16215612	        -58.42497944	          0.21424449	          0.00000000	          0.12222629	          0.00000000	          0.00042086	          0.00000000	          0.00000000	         11.06336181	          0.00000000	
          3.59000000	          0.02546573	          0.08342766	         -0.00101905	         -0.00034363	          0.00000000	         -0.00012766	        -11.21948441	        748.96321966	        -57.97872683	          0.21609210	          0.00000000	          0.12271813	          0.00000000	          0.00036324	          0.00000000	          0.00000000	         10.71905688	          0.00000000	
          3.59500000	          0.01430618	          0.05458662	         -0.00113197	         -0.00030314	          0.00000000	         -0.00011454	        -10.00177599	        741.05805539	        -57.60347418	          0.21792949	          0.00000000	          0.12321607	          0.00000000	          0.00029756	          0.00000000	          0.00000000	         10.39067565	          0.00000000	
          3.60000000	          0.00601833	          0.03177427	         -0.00111485	         -0.00025320	          0.00000000	         -0.00009706	         -8.83042890	        733.54590157	        -57.28314974	          0.21975018	          0.00000000	          0.12371884	          0.00000000	          0.00023191	          0.00000000	          0.00000000	         10.07759055	          0.00000000	
          3.60500000	          0.00022752	          0.01463219	         -0.00101570	         -0.00020115	          0.00000000	         -0.00007818	         -7.69762572	        726.52549661	        -57.00098384	          0.22154590	          0.00000000	          0.12422493	          0.00000000	          0.00017147	          0.00000000	          0.00000000	          9.77902666	          0.00000000	
          3.61000000	         -0.00350401	          0.00248208	         -0.00087179	         -0.00015186	          0.00000000	         -0.00005989	         -6.59737607	        720.09096223	        -56.74008466	          0.22330859	          0.00000000	          0.12473401	          0.00000000	          0.00011914	          0.00000000	          0.00000000	          9.49399171	          0.00000000	
          3.61500000	         -0.00561984	         -0.00550585	         -0.00071056	         -0.00010824	          0.00000000	         -0.00004342	         -5.52567910	        714.33013889	        -56.48552016	          0.22503016	          0.00000000	          0.12524737	          0.00000000	          0.00007617	          0.00000000	          0.00000000	          9.22184693	          0.00000000	
          3.62000000	         -0.00653222	         -0.01019291	         -0.00055096	         -0.00007171	          0.00000000	         -0.00002943	         -4.47897975	        709.32055627	        -56.22606676	          0.22670112	          0.00000000	          0.12576719	          0.00000000	          0.00004259	          0.00000000	          0.00000000	          8.96255234	          0.00000000	
          3.62500000	         -0.00660070	         -0.01239250	         -0.00040504	         -0.00004261	          0.00000000	         -0.00001813	         -3.45230056	        705.12849509	        -55.95608545	          0.22831158	          0.00000000	          0.12629660	          0.00000000	          0.00001768	          0.00000000	          0.00000000	          8.71644225	          0.00000000	
